<mxfile host="app.diagrams.net" agent="Mozilla/5.0 (X11; Ubuntu; Linux x86_64; rv:138.0) Gecko/20100101 Firefox/138.0" version="27.1.0">
  <diagram name="Page-1" id="irKl_Ip9AYmkcE53IxLc">
    <mxGraphModel dx="1133" dy="763" grid="1" gridSize="10" guides="1" tooltips="1" connect="1" arrows="1" fold="1" page="1" pageScale="1" pageWidth="1654" pageHeight="2336" math="0" shadow="0">
      <root>
        <mxCell id="0" />
        <mxCell id="1" parent="0" />
        <mxCell id="hYvaotD8W8mty2D5eMre-24" style="edgeStyle=orthogonalEdgeStyle;rounded=0;orthogonalLoop=1;jettySize=auto;html=1;exitX=1;exitY=0.5;exitDx=0;exitDy=0;entryX=0;entryY=0.5;entryDx=0;entryDy=0;dashed=1;startArrow=classic;startFill=1;" parent="1" source="TqMDyUF_tegWf5pfxciP-1" target="hYvaotD8W8mty2D5eMre-5" edge="1">
          <mxGeometry relative="1" as="geometry" />
        </mxCell>
        <mxCell id="hYvaotD8W8mty2D5eMre-25" style="edgeStyle=orthogonalEdgeStyle;rounded=0;orthogonalLoop=1;jettySize=auto;html=1;exitX=1;exitY=0.5;exitDx=0;exitDy=0;entryX=0;entryY=0.5;entryDx=0;entryDy=0;dashed=1;startArrow=classic;startFill=1;" parent="1" source="TqMDyUF_tegWf5pfxciP-1" target="hYvaotD8W8mty2D5eMre-3" edge="1">
          <mxGeometry relative="1" as="geometry" />
        </mxCell>
        <mxCell id="hYvaotD8W8mty2D5eMre-26" style="edgeStyle=orthogonalEdgeStyle;rounded=0;orthogonalLoop=1;jettySize=auto;html=1;exitX=1;exitY=0.5;exitDx=0;exitDy=0;entryX=0;entryY=0.5;entryDx=0;entryDy=0;dashed=1;startArrow=classic;startFill=1;" parent="1" source="TqMDyUF_tegWf5pfxciP-1" target="TqMDyUF_tegWf5pfxciP-3" edge="1">
          <mxGeometry relative="1" as="geometry" />
        </mxCell>
        <mxCell id="hYvaotD8W8mty2D5eMre-27" style="edgeStyle=orthogonalEdgeStyle;rounded=0;orthogonalLoop=1;jettySize=auto;html=1;exitX=1;exitY=0.5;exitDx=0;exitDy=0;entryX=0;entryY=0.5;entryDx=0;entryDy=0;dashed=1;startArrow=classic;startFill=1;" parent="1" source="TqMDyUF_tegWf5pfxciP-1" target="hYvaotD8W8mty2D5eMre-7" edge="1">
          <mxGeometry relative="1" as="geometry" />
        </mxCell>
        <mxCell id="hYvaotD8W8mty2D5eMre-28" style="edgeStyle=orthogonalEdgeStyle;rounded=0;orthogonalLoop=1;jettySize=auto;html=1;exitX=1;exitY=0.5;exitDx=0;exitDy=0;entryX=0;entryY=0.5;entryDx=0;entryDy=0;dashed=1;startArrow=classic;startFill=1;" parent="1" source="TqMDyUF_tegWf5pfxciP-1" target="hYvaotD8W8mty2D5eMre-9" edge="1">
          <mxGeometry relative="1" as="geometry" />
        </mxCell>
        <mxCell id="hYvaotD8W8mty2D5eMre-29" style="edgeStyle=orthogonalEdgeStyle;rounded=0;orthogonalLoop=1;jettySize=auto;html=1;exitX=1;exitY=0.5;exitDx=0;exitDy=0;entryX=0;entryY=0.5;entryDx=0;entryDy=0;dashed=1;startArrow=classic;startFill=1;" parent="1" source="TqMDyUF_tegWf5pfxciP-1" target="hYvaotD8W8mty2D5eMre-11" edge="1">
          <mxGeometry relative="1" as="geometry" />
        </mxCell>
        <mxCell id="6ah1hI4fNlr0yAeC4G_w-4" style="edgeStyle=orthogonalEdgeStyle;rounded=0;orthogonalLoop=1;jettySize=auto;html=1;exitX=1;exitY=0.5;exitDx=0;exitDy=0;entryX=0;entryY=0.5;entryDx=0;entryDy=0;dashed=1;" edge="1" parent="1" source="TqMDyUF_tegWf5pfxciP-1" target="6ah1hI4fNlr0yAeC4G_w-1">
          <mxGeometry relative="1" as="geometry" />
        </mxCell>
        <mxCell id="TqMDyUF_tegWf5pfxciP-1" value="User Interface" style="html=1;dropTarget=0;whiteSpace=wrap;" parent="1" vertex="1">
          <mxGeometry x="60" y="452" width="160" height="50" as="geometry" />
        </mxCell>
        <mxCell id="TqMDyUF_tegWf5pfxciP-2" value="" style="shape=module;jettyWidth=8;jettyHeight=4;" parent="TqMDyUF_tegWf5pfxciP-1" vertex="1">
          <mxGeometry x="1" width="20" height="20" relative="1" as="geometry">
            <mxPoint x="-27" y="7" as="offset" />
          </mxGeometry>
        </mxCell>
        <mxCell id="hYvaotD8W8mty2D5eMre-61" style="edgeStyle=orthogonalEdgeStyle;rounded=0;orthogonalLoop=1;jettySize=auto;html=1;exitX=1;exitY=0.5;exitDx=0;exitDy=0;entryX=0;entryY=0.5;entryDx=0;entryDy=0;dashed=1;startArrow=classic;startFill=1;" parent="1" source="TqMDyUF_tegWf5pfxciP-3" target="hYvaotD8W8mty2D5eMre-42" edge="1">
          <mxGeometry relative="1" as="geometry" />
        </mxCell>
        <mxCell id="TqMDyUF_tegWf5pfxciP-3" value="ProductController" style="html=1;dropTarget=0;whiteSpace=wrap;" parent="1" vertex="1">
          <mxGeometry x="290" y="312" width="160" height="50" as="geometry" />
        </mxCell>
        <mxCell id="TqMDyUF_tegWf5pfxciP-4" value="" style="shape=module;jettyWidth=8;jettyHeight=4;" parent="TqMDyUF_tegWf5pfxciP-3" vertex="1">
          <mxGeometry x="1" width="20" height="20" relative="1" as="geometry">
            <mxPoint x="-27" y="7" as="offset" />
          </mxGeometry>
        </mxCell>
        <mxCell id="hYvaotD8W8mty2D5eMre-60" style="edgeStyle=orthogonalEdgeStyle;rounded=0;orthogonalLoop=1;jettySize=auto;html=1;exitX=1;exitY=0.5;exitDx=0;exitDy=0;entryX=0;entryY=0.5;entryDx=0;entryDy=0;dashed=1;startArrow=classic;startFill=1;" parent="1" source="hYvaotD8W8mty2D5eMre-3" target="hYvaotD8W8mty2D5eMre-40" edge="1">
          <mxGeometry relative="1" as="geometry" />
        </mxCell>
        <mxCell id="6ah1hI4fNlr0yAeC4G_w-13" style="edgeStyle=orthogonalEdgeStyle;rounded=0;orthogonalLoop=1;jettySize=auto;html=1;exitX=1;exitY=0.5;exitDx=0;exitDy=0;entryX=0;entryY=0.75;entryDx=0;entryDy=0;dashed=1;fillColor=#f8cecc;strokeColor=#b85450;" edge="1" parent="1" source="hYvaotD8W8mty2D5eMre-3" target="hYvaotD8W8mty2D5eMre-46">
          <mxGeometry relative="1" as="geometry">
            <Array as="points">
              <mxPoint x="510" y="267" />
              <mxPoint x="510" y="490" />
              <mxPoint x="570" y="490" />
            </Array>
          </mxGeometry>
        </mxCell>
        <mxCell id="6ah1hI4fNlr0yAeC4G_w-14" style="edgeStyle=orthogonalEdgeStyle;rounded=0;orthogonalLoop=1;jettySize=auto;html=1;exitX=1;exitY=0.5;exitDx=0;exitDy=0;entryX=0;entryY=0.75;entryDx=0;entryDy=0;dashed=1;fillColor=#f8cecc;strokeColor=#b85450;" edge="1" parent="1" source="hYvaotD8W8mty2D5eMre-3" target="hYvaotD8W8mty2D5eMre-48">
          <mxGeometry relative="1" as="geometry">
            <Array as="points">
              <mxPoint x="510" y="267" />
              <mxPoint x="510" y="560" />
            </Array>
          </mxGeometry>
        </mxCell>
        <mxCell id="hYvaotD8W8mty2D5eMre-3" value="OrderController" style="html=1;dropTarget=0;whiteSpace=wrap;" parent="1" vertex="1">
          <mxGeometry x="290" y="242" width="160" height="50" as="geometry" />
        </mxCell>
        <mxCell id="hYvaotD8W8mty2D5eMre-4" value="" style="shape=module;jettyWidth=8;jettyHeight=4;" parent="hYvaotD8W8mty2D5eMre-3" vertex="1">
          <mxGeometry x="1" width="20" height="20" relative="1" as="geometry">
            <mxPoint x="-27" y="7" as="offset" />
          </mxGeometry>
        </mxCell>
        <mxCell id="hYvaotD8W8mty2D5eMre-59" style="edgeStyle=orthogonalEdgeStyle;rounded=0;orthogonalLoop=1;jettySize=auto;html=1;exitX=1;exitY=0.5;exitDx=0;exitDy=0;entryX=0;entryY=0.5;entryDx=0;entryDy=0;dashed=1;startArrow=classic;startFill=1;" parent="1" source="hYvaotD8W8mty2D5eMre-5" target="hYvaotD8W8mty2D5eMre-38" edge="1">
          <mxGeometry relative="1" as="geometry" />
        </mxCell>
        <mxCell id="6ah1hI4fNlr0yAeC4G_w-5" style="edgeStyle=orthogonalEdgeStyle;rounded=0;orthogonalLoop=1;jettySize=auto;html=1;exitX=1;exitY=0.5;exitDx=0;exitDy=0;entryX=0;entryY=0.25;entryDx=0;entryDy=0;dashed=1;fillColor=#e1d5e7;strokeColor=#9673a6;" edge="1" parent="1" source="hYvaotD8W8mty2D5eMre-5" target="hYvaotD8W8mty2D5eMre-46">
          <mxGeometry relative="1" as="geometry">
            <Array as="points">
              <mxPoint x="530" y="197" />
              <mxPoint x="530" y="465" />
            </Array>
          </mxGeometry>
        </mxCell>
        <mxCell id="6ah1hI4fNlr0yAeC4G_w-6" style="edgeStyle=orthogonalEdgeStyle;rounded=0;orthogonalLoop=1;jettySize=auto;html=1;exitX=1;exitY=0.5;exitDx=0;exitDy=0;entryX=0;entryY=0.25;entryDx=0;entryDy=0;dashed=1;fillColor=#e1d5e7;strokeColor=#9673a6;" edge="1" parent="1" source="hYvaotD8W8mty2D5eMre-5" target="hYvaotD8W8mty2D5eMre-48">
          <mxGeometry relative="1" as="geometry">
            <Array as="points">
              <mxPoint x="530" y="197" />
              <mxPoint x="530" y="535" />
            </Array>
          </mxGeometry>
        </mxCell>
        <mxCell id="hYvaotD8W8mty2D5eMre-5" value="ReviewController" style="html=1;dropTarget=0;whiteSpace=wrap;" parent="1" vertex="1">
          <mxGeometry x="290" y="172" width="160" height="50" as="geometry" />
        </mxCell>
        <mxCell id="hYvaotD8W8mty2D5eMre-6" value="" style="shape=module;jettyWidth=8;jettyHeight=4;" parent="hYvaotD8W8mty2D5eMre-5" vertex="1">
          <mxGeometry x="1" width="20" height="20" relative="1" as="geometry">
            <mxPoint x="-27" y="7" as="offset" />
          </mxGeometry>
        </mxCell>
        <mxCell id="hYvaotD8W8mty2D5eMre-62" style="edgeStyle=orthogonalEdgeStyle;rounded=0;orthogonalLoop=1;jettySize=auto;html=1;exitX=1;exitY=0.5;exitDx=0;exitDy=0;entryX=0;entryY=0.5;entryDx=0;entryDy=0;dashed=1;startArrow=classic;startFill=1;" parent="1" source="hYvaotD8W8mty2D5eMre-7" target="hYvaotD8W8mty2D5eMre-44" edge="1">
          <mxGeometry relative="1" as="geometry" />
        </mxCell>
        <mxCell id="hYvaotD8W8mty2D5eMre-7" value="MessageController" style="html=1;dropTarget=0;whiteSpace=wrap;" parent="1" vertex="1">
          <mxGeometry x="290" y="382" width="160" height="50" as="geometry" />
        </mxCell>
        <mxCell id="hYvaotD8W8mty2D5eMre-8" value="" style="shape=module;jettyWidth=8;jettyHeight=4;" parent="hYvaotD8W8mty2D5eMre-7" vertex="1">
          <mxGeometry x="1" width="20" height="20" relative="1" as="geometry">
            <mxPoint x="-27" y="7" as="offset" />
          </mxGeometry>
        </mxCell>
        <mxCell id="hYvaotD8W8mty2D5eMre-63" style="edgeStyle=orthogonalEdgeStyle;rounded=0;orthogonalLoop=1;jettySize=auto;html=1;exitX=1;exitY=0.5;exitDx=0;exitDy=0;entryX=0;entryY=0.5;entryDx=0;entryDy=0;dashed=1;startArrow=classic;startFill=1;" parent="1" source="hYvaotD8W8mty2D5eMre-9" target="hYvaotD8W8mty2D5eMre-46" edge="1">
          <mxGeometry relative="1" as="geometry">
            <Array as="points">
              <mxPoint x="560" y="477" />
              <mxPoint x="560" y="477" />
            </Array>
          </mxGeometry>
        </mxCell>
        <mxCell id="hYvaotD8W8mty2D5eMre-9" value="ClientController" style="html=1;dropTarget=0;whiteSpace=wrap;" parent="1" vertex="1">
          <mxGeometry x="290" y="452" width="160" height="50" as="geometry" />
        </mxCell>
        <mxCell id="hYvaotD8W8mty2D5eMre-10" value="" style="shape=module;jettyWidth=8;jettyHeight=4;" parent="hYvaotD8W8mty2D5eMre-9" vertex="1">
          <mxGeometry x="1" width="20" height="20" relative="1" as="geometry">
            <mxPoint x="-27" y="7" as="offset" />
          </mxGeometry>
        </mxCell>
        <mxCell id="hYvaotD8W8mty2D5eMre-64" style="edgeStyle=orthogonalEdgeStyle;rounded=0;orthogonalLoop=1;jettySize=auto;html=1;exitX=1;exitY=0.5;exitDx=0;exitDy=0;entryX=0;entryY=0.5;entryDx=0;entryDy=0;dashed=1;startArrow=classic;startFill=1;" parent="1" source="hYvaotD8W8mty2D5eMre-11" target="hYvaotD8W8mty2D5eMre-48" edge="1">
          <mxGeometry relative="1" as="geometry" />
        </mxCell>
        <mxCell id="hYvaotD8W8mty2D5eMre-11" value="ConsultantController" style="html=1;dropTarget=0;whiteSpace=wrap;" parent="1" vertex="1">
          <mxGeometry x="290" y="522" width="160" height="50" as="geometry" />
        </mxCell>
        <mxCell id="hYvaotD8W8mty2D5eMre-12" value="" style="shape=module;jettyWidth=8;jettyHeight=4;" parent="hYvaotD8W8mty2D5eMre-11" vertex="1">
          <mxGeometry x="1" width="20" height="20" relative="1" as="geometry">
            <mxPoint x="-27" y="7" as="offset" />
          </mxGeometry>
        </mxCell>
        <mxCell id="hYvaotD8W8mty2D5eMre-37" value="&lt;font style=&quot;font-size: 15px;&quot;&gt;Controllers&lt;/font&gt;" style="text;html=1;align=center;verticalAlign=middle;resizable=0;points=[];autosize=1;strokeColor=none;fillColor=none;" parent="1" vertex="1">
          <mxGeometry x="320" y="130" width="100" height="30" as="geometry" />
        </mxCell>
        <mxCell id="hYvaotD8W8mty2D5eMre-71" style="edgeStyle=orthogonalEdgeStyle;rounded=0;orthogonalLoop=1;jettySize=auto;html=1;exitX=1;exitY=0.5;exitDx=0;exitDy=0;entryX=0;entryY=0.5;entryDx=0;entryDy=0;startArrow=classic;startFill=1;dashed=1;" parent="1" source="hYvaotD8W8mty2D5eMre-38" target="hYvaotD8W8mty2D5eMre-54" edge="1">
          <mxGeometry relative="1" as="geometry" />
        </mxCell>
        <mxCell id="hYvaotD8W8mty2D5eMre-38" value="ReviewModel" style="html=1;dropTarget=0;whiteSpace=wrap;" parent="1" vertex="1">
          <mxGeometry x="570" y="172" width="160" height="50" as="geometry" />
        </mxCell>
        <mxCell id="hYvaotD8W8mty2D5eMre-39" value="" style="shape=module;jettyWidth=8;jettyHeight=4;" parent="hYvaotD8W8mty2D5eMre-38" vertex="1">
          <mxGeometry x="1" width="20" height="20" relative="1" as="geometry">
            <mxPoint x="-27" y="7" as="offset" />
          </mxGeometry>
        </mxCell>
        <mxCell id="hYvaotD8W8mty2D5eMre-72" style="edgeStyle=orthogonalEdgeStyle;rounded=0;orthogonalLoop=1;jettySize=auto;html=1;exitX=1;exitY=0.5;exitDx=0;exitDy=0;entryX=0;entryY=0.5;entryDx=0;entryDy=0;startArrow=classic;startFill=1;dashed=1;" parent="1" source="hYvaotD8W8mty2D5eMre-40" target="hYvaotD8W8mty2D5eMre-54" edge="1">
          <mxGeometry relative="1" as="geometry" />
        </mxCell>
        <mxCell id="hYvaotD8W8mty2D5eMre-40" value="OrderModel" style="html=1;dropTarget=0;whiteSpace=wrap;" parent="1" vertex="1">
          <mxGeometry x="570" y="242" width="160" height="50" as="geometry" />
        </mxCell>
        <mxCell id="hYvaotD8W8mty2D5eMre-41" value="" style="shape=module;jettyWidth=8;jettyHeight=4;" parent="hYvaotD8W8mty2D5eMre-40" vertex="1">
          <mxGeometry x="1" width="20" height="20" relative="1" as="geometry">
            <mxPoint x="-27" y="7" as="offset" />
          </mxGeometry>
        </mxCell>
        <mxCell id="hYvaotD8W8mty2D5eMre-42" value="ProductModel" style="html=1;dropTarget=0;whiteSpace=wrap;" parent="1" vertex="1">
          <mxGeometry x="570" y="312" width="160" height="50" as="geometry" />
        </mxCell>
        <mxCell id="hYvaotD8W8mty2D5eMre-43" value="" style="shape=module;jettyWidth=8;jettyHeight=4;" parent="hYvaotD8W8mty2D5eMre-42" vertex="1">
          <mxGeometry x="1" width="20" height="20" relative="1" as="geometry">
            <mxPoint x="-27" y="7" as="offset" />
          </mxGeometry>
        </mxCell>
        <mxCell id="hYvaotD8W8mty2D5eMre-73" style="edgeStyle=orthogonalEdgeStyle;rounded=0;orthogonalLoop=1;jettySize=auto;html=1;exitX=1;exitY=0.5;exitDx=0;exitDy=0;entryX=0;entryY=0.5;entryDx=0;entryDy=0;startArrow=classic;startFill=1;dashed=1;" parent="1" source="hYvaotD8W8mty2D5eMre-44" target="hYvaotD8W8mty2D5eMre-54" edge="1">
          <mxGeometry relative="1" as="geometry" />
        </mxCell>
        <mxCell id="hYvaotD8W8mty2D5eMre-44" value="MessageModel" style="html=1;dropTarget=0;whiteSpace=wrap;" parent="1" vertex="1">
          <mxGeometry x="570" y="382" width="160" height="50" as="geometry" />
        </mxCell>
        <mxCell id="hYvaotD8W8mty2D5eMre-45" value="" style="shape=module;jettyWidth=8;jettyHeight=4;" parent="hYvaotD8W8mty2D5eMre-44" vertex="1">
          <mxGeometry x="1" width="20" height="20" relative="1" as="geometry">
            <mxPoint x="-27" y="7" as="offset" />
          </mxGeometry>
        </mxCell>
        <mxCell id="hYvaotD8W8mty2D5eMre-74" style="edgeStyle=orthogonalEdgeStyle;rounded=0;orthogonalLoop=1;jettySize=auto;html=1;exitX=1;exitY=0.5;exitDx=0;exitDy=0;dashed=1;startArrow=classic;startFill=1;" parent="1" source="hYvaotD8W8mty2D5eMre-46" target="hYvaotD8W8mty2D5eMre-54" edge="1">
          <mxGeometry relative="1" as="geometry" />
        </mxCell>
        <mxCell id="hYvaotD8W8mty2D5eMre-46" value="ClientModel" style="html=1;dropTarget=0;whiteSpace=wrap;" parent="1" vertex="1">
          <mxGeometry x="570" y="452" width="160" height="50" as="geometry" />
        </mxCell>
        <mxCell id="hYvaotD8W8mty2D5eMre-47" value="" style="shape=module;jettyWidth=8;jettyHeight=4;" parent="hYvaotD8W8mty2D5eMre-46" vertex="1">
          <mxGeometry x="1" width="20" height="20" relative="1" as="geometry">
            <mxPoint x="-27" y="7" as="offset" />
          </mxGeometry>
        </mxCell>
        <mxCell id="hYvaotD8W8mty2D5eMre-75" style="edgeStyle=orthogonalEdgeStyle;rounded=0;orthogonalLoop=1;jettySize=auto;html=1;exitX=1;exitY=0.5;exitDx=0;exitDy=0;entryX=0;entryY=0.5;entryDx=0;entryDy=0;startArrow=classic;startFill=1;dashed=1;" parent="1" source="hYvaotD8W8mty2D5eMre-48" target="hYvaotD8W8mty2D5eMre-54" edge="1">
          <mxGeometry relative="1" as="geometry" />
        </mxCell>
        <mxCell id="hYvaotD8W8mty2D5eMre-48" value="ConsultantModel" style="html=1;dropTarget=0;whiteSpace=wrap;" parent="1" vertex="1">
          <mxGeometry x="570" y="522" width="160" height="50" as="geometry" />
        </mxCell>
        <mxCell id="hYvaotD8W8mty2D5eMre-49" value="" style="shape=module;jettyWidth=8;jettyHeight=4;" parent="hYvaotD8W8mty2D5eMre-48" vertex="1">
          <mxGeometry x="1" width="20" height="20" relative="1" as="geometry">
            <mxPoint x="-27" y="7" as="offset" />
          </mxGeometry>
        </mxCell>
        <mxCell id="hYvaotD8W8mty2D5eMre-77" style="edgeStyle=orthogonalEdgeStyle;rounded=0;orthogonalLoop=1;jettySize=auto;html=1;exitX=1;exitY=0.5;exitDx=0;exitDy=0;entryX=0;entryY=0.5;entryDx=0;entryDy=0;startArrow=classic;startFill=1;dashed=1;" parent="1" source="hYvaotD8W8mty2D5eMre-50" target="hYvaotD8W8mty2D5eMre-54" edge="1">
          <mxGeometry relative="1" as="geometry" />
        </mxCell>
        <mxCell id="hYvaotD8W8mty2D5eMre-50" value="OrderProductModel" style="html=1;dropTarget=0;whiteSpace=wrap;" parent="1" vertex="1">
          <mxGeometry x="570" y="590" width="160" height="50" as="geometry" />
        </mxCell>
        <mxCell id="hYvaotD8W8mty2D5eMre-51" value="" style="shape=module;jettyWidth=8;jettyHeight=4;" parent="hYvaotD8W8mty2D5eMre-50" vertex="1">
          <mxGeometry x="1" width="20" height="20" relative="1" as="geometry">
            <mxPoint x="-27" y="7" as="offset" />
          </mxGeometry>
        </mxCell>
        <mxCell id="hYvaotD8W8mty2D5eMre-70" style="edgeStyle=orthogonalEdgeStyle;rounded=0;orthogonalLoop=1;jettySize=auto;html=1;exitX=1;exitY=0.5;exitDx=0;exitDy=0;dashed=1;startArrow=classic;startFill=1;" parent="1" source="hYvaotD8W8mty2D5eMre-54" edge="1">
          <mxGeometry relative="1" as="geometry">
            <mxPoint x="990" y="477" as="targetPoint" />
          </mxGeometry>
        </mxCell>
        <mxCell id="hYvaotD8W8mty2D5eMre-54" value="Data Access" style="html=1;dropTarget=0;whiteSpace=wrap;" parent="1" vertex="1">
          <mxGeometry x="780" y="452" width="160" height="50" as="geometry" />
        </mxCell>
        <mxCell id="hYvaotD8W8mty2D5eMre-55" value="" style="shape=module;jettyWidth=8;jettyHeight=4;" parent="hYvaotD8W8mty2D5eMre-54" vertex="1">
          <mxGeometry x="1" width="20" height="20" relative="1" as="geometry">
            <mxPoint x="-27" y="7" as="offset" />
          </mxGeometry>
        </mxCell>
        <mxCell id="hYvaotD8W8mty2D5eMre-56" value="Database" style="shape=datastore;html=1;labelPosition=center;verticalLabelPosition=bottom;align=center;verticalAlign=top;" parent="1" vertex="1">
          <mxGeometry x="920" y="427" width="100" height="100" as="geometry" />
        </mxCell>
        <mxCell id="hYvaotD8W8mty2D5eMre-57" value="&lt;font style=&quot;font-size: 18px;&quot;&gt;UI&lt;/font&gt;" style="text;html=1;align=center;verticalAlign=middle;resizable=0;points=[];autosize=1;strokeColor=none;fillColor=none;" parent="1" vertex="1">
          <mxGeometry x="120" y="80" width="40" height="40" as="geometry" />
        </mxCell>
        <mxCell id="hYvaotD8W8mty2D5eMre-58" value="&lt;font style=&quot;font-size: 15px;&quot;&gt;Models&lt;/font&gt;" style="text;html=1;align=center;verticalAlign=middle;resizable=0;points=[];autosize=1;strokeColor=none;fillColor=none;" parent="1" vertex="1">
          <mxGeometry x="610" y="130" width="70" height="30" as="geometry" />
        </mxCell>
        <mxCell id="hYvaotD8W8mty2D5eMre-79" value="&lt;font style=&quot;font-size: 18px;&quot;&gt;Business Logic&lt;/font&gt;" style="text;html=1;align=center;verticalAlign=middle;resizable=0;points=[];autosize=1;strokeColor=none;fillColor=none;" parent="1" vertex="1">
          <mxGeometry x="450" y="80" width="140" height="40" as="geometry" />
        </mxCell>
        <mxCell id="hYvaotD8W8mty2D5eMre-80" value="&lt;font style=&quot;font-size: 18px;&quot;&gt;Database&lt;/font&gt;" style="text;html=1;align=center;verticalAlign=middle;resizable=0;points=[];autosize=1;strokeColor=none;fillColor=none;" parent="1" vertex="1">
          <mxGeometry x="920" y="80" width="100" height="40" as="geometry" />
        </mxCell>
        <mxCell id="6ah1hI4fNlr0yAeC4G_w-10" style="edgeStyle=orthogonalEdgeStyle;rounded=0;orthogonalLoop=1;jettySize=auto;html=1;exitX=1;exitY=0.5;exitDx=0;exitDy=0;dashed=1;fillColor=#fff2cc;strokeColor=#d6b656;" edge="1" parent="1" target="hYvaotD8W8mty2D5eMre-42">
          <mxGeometry relative="1" as="geometry">
            <mxPoint x="440" y="616" as="sourcePoint" />
            <mxPoint x="560" y="338" as="targetPoint" />
            <Array as="points">
              <mxPoint x="480" y="616" />
              <mxPoint x="480" y="350" />
            </Array>
          </mxGeometry>
        </mxCell>
        <mxCell id="6ah1hI4fNlr0yAeC4G_w-11" style="edgeStyle=orthogonalEdgeStyle;rounded=0;orthogonalLoop=1;jettySize=auto;html=1;exitX=1;exitY=0.5;exitDx=0;exitDy=0;entryX=0;entryY=0.5;entryDx=0;entryDy=0;dashed=1;fillColor=#fff2cc;strokeColor=#d6b656;" edge="1" parent="1" source="6ah1hI4fNlr0yAeC4G_w-1" target="hYvaotD8W8mty2D5eMre-40">
          <mxGeometry relative="1" as="geometry">
            <Array as="points">
              <mxPoint x="480" y="615" />
              <mxPoint x="480" y="267" />
            </Array>
          </mxGeometry>
        </mxCell>
        <mxCell id="6ah1hI4fNlr0yAeC4G_w-12" style="edgeStyle=orthogonalEdgeStyle;rounded=0;orthogonalLoop=1;jettySize=auto;html=1;exitX=1;exitY=0.5;exitDx=0;exitDy=0;dashed=1;startArrow=classic;startFill=1;" edge="1" parent="1" source="6ah1hI4fNlr0yAeC4G_w-1" target="hYvaotD8W8mty2D5eMre-50">
          <mxGeometry relative="1" as="geometry" />
        </mxCell>
        <mxCell id="6ah1hI4fNlr0yAeC4G_w-1" value="OrderProductController" style="html=1;dropTarget=0;whiteSpace=wrap;" vertex="1" parent="1">
          <mxGeometry x="290" y="590" width="160" height="50" as="geometry" />
        </mxCell>
        <mxCell id="6ah1hI4fNlr0yAeC4G_w-2" value="" style="shape=module;jettyWidth=8;jettyHeight=4;" vertex="1" parent="6ah1hI4fNlr0yAeC4G_w-1">
          <mxGeometry x="1" width="20" height="20" relative="1" as="geometry">
            <mxPoint x="-27" y="7" as="offset" />
          </mxGeometry>
        </mxCell>
      </root>
    </mxGraphModel>
  </diagram>
</mxfile>
